<svg width="3192" height="2861" viewBox="0 0 3192 2861" fill="none" xmlns="http://www.w3.org/2000/svg">
<path d="M3240 533.376L3217.93 347L0 529.249L22.0677 715.625L3240 533.376Z" fill="url(#paint0_linear_32_2)" fill-opacity="0.03"/>
<path d="M3240 887.376L3217.93 701L0 883.249L22.0677 1069.62L3240 887.376Z" fill="url(#paint1_linear_32_2)" fill-opacity="0.03"/>
<path d="M3240 1220.38L3217.93 1034L0 1216.25L22.0677 1402.62L3240 1220.38Z" fill="url(#paint2_linear_32_2)" fill-opacity="0.03"/>
<path d="M3240 1560.38L3217.93 1374L0 1556.25L22.0677 1742.62L3240 1560.38Z" fill="url(#paint3_linear_32_2)" fill-opacity="0.03"/>
<path d="M3240 186.376L3217.93 0L0 182.249L22.0677 368.625L3240 186.376Z" fill="url(#paint4_linear_32_2)" fill-opacity="0.03"/>
<path d="M3240 1929.38L3217.93 1743L0 1925.25L22.0677 2111.62L3240 1929.38Z" fill="url(#paint5_linear_32_2)" fill-opacity="0.03"/>
<path d="M3240 2309.38L3217.93 2123L0 2305.25L22.0677 2491.62L3240 2309.38Z" fill="url(#paint6_linear_32_2)" fill-opacity="0.03"/>
<path d="M3240 2678.38L3217.93 2492L0 2674.25L22.0677 2860.62L3240 2678.38Z" fill="url(#paint7_linear_32_2)" fill-opacity="0.03"/>
<defs>
<linearGradient id="paint0_linear_32_2" x1="3228.97" y1="2585.19" x2="34.2433" y2="2963.46" gradientUnits="userSpaceOnUse">
<stop stop-color="#FF9F01"/>
<stop offset="1" stop-color="#FF9F01" stop-opacity="0"/>
<stop offset="1" stop-color="#FFB800"/>
</linearGradient>
<linearGradient id="paint1_linear_32_2" x1="3228.97" y1="2585.19" x2="34.2433" y2="2963.46" gradientUnits="userSpaceOnUse">
<stop stop-color="#FF9F01"/>
<stop offset="1" stop-color="#FF9F01" stop-opacity="0"/>
<stop offset="1" stop-color="#FFB800"/>
</linearGradient>
<linearGradient id="paint2_linear_32_2" x1="3228.97" y1="2585.19" x2="34.2433" y2="2963.46" gradientUnits="userSpaceOnUse">
<stop stop-color="#FF9F01"/>
<stop offset="1" stop-color="#FF9F01" stop-opacity="0"/>
<stop offset="1" stop-color="#FFB800"/>
</linearGradient>
<linearGradient id="paint3_linear_32_2" x1="3228.97" y1="2585.19" x2="34.2433" y2="2963.46" gradientUnits="userSpaceOnUse">
<stop stop-color="#FF9F01"/>
<stop offset="1" stop-color="#FF9F01" stop-opacity="0"/>
<stop offset="1" stop-color="#FFB800"/>
</linearGradient>
<linearGradient id="paint4_linear_32_2" x1="3228.97" y1="2585.19" x2="34.2433" y2="2963.46" gradientUnits="userSpaceOnUse">
<stop stop-color="#FF9F01"/>
<stop offset="1" stop-color="#FF9F01" stop-opacity="0"/>
<stop offset="1" stop-color="#FFB800"/>
</linearGradient>
<linearGradient id="paint5_linear_32_2" x1="3228.97" y1="2585.19" x2="34.2433" y2="2963.46" gradientUnits="userSpaceOnUse">
<stop stop-color="#FF9F01"/>
<stop offset="1" stop-color="#FF9F01" stop-opacity="0"/>
<stop offset="1" stop-color="#FFB800"/>
</linearGradient>
<linearGradient id="paint6_linear_32_2" x1="3228.97" y1="2585.19" x2="34.2433" y2="2963.46" gradientUnits="userSpaceOnUse">
<stop stop-color="#FF9F01"/>
<stop offset="1" stop-color="#FF9F01" stop-opacity="0"/>
<stop offset="1" stop-color="#FFB800"/>
</linearGradient>
<linearGradient id="paint7_linear_32_2" x1="3228.97" y1="2585.19" x2="34.2433" y2="2963.46" gradientUnits="userSpaceOnUse">
<stop stop-color="#FF9F01"/>
<stop offset="1" stop-color="#FF9F01" stop-opacity="0"/>
<stop offset="1" stop-color="#FFB800"/>
</linearGradient>
</defs>
</svg>
